<svg xmlns="http://www.w3.org/2000/svg" xmlns:xlink="http://www.w3.org/1999/xlink" viewBox="0,0,256,256" width="17px" height="17px"><g fill="#dddddd" fill-rule="nonzero" stroke="none" stroke-width="1" stroke-linecap="butt" stroke-linejoin="miter" stroke-miterlimit="10" stroke-dasharray="" stroke-dashoffset="0" font-family="none" font-weight="none" font-size="none" text-anchor="none" style="mix-blend-mode: normal"><g transform="scale(8.53333,8.53333)"><path d="M18,19v-2c0.45,-0.223 1.737,-1.755 1.872,-2.952c0.354,-0.027 0.91,-0.352 1.074,-1.635c0.088,-0.689 -0.262,-1.076 -0.474,-1.198c0,0 0.528,-1.003 0.528,-2.214c0,-2.428 -0.953,-4.5 -3,-4.5c0,0 -0.711,-1.5 -3,-1.5c-4.242,0 -6,2.721 -6,6c0,1.104 0.528,2.214 0.528,2.214c-0.212,0.122 -0.562,0.51 -0.474,1.198c0.164,1.283 0.72,1.608 1.074,1.635c0.135,1.197 1.422,2.729 1.872,2.952v2c-1,3 -9,1 -9,8h24c0,-7 -8,-5 -9,-8z"></path></g></g></svg>